<?xml version="1.0" standalone="no"?>
<!DOCTYPE svg PUBLIC "-//W3C//DTD SVG 20010904//EN"
 "http://www.w3.org/TR/2001/REC-SVG-20010904/DTD/svg10.dtd">
<svg version="1.0" xmlns="http://www.w3.org/2000/svg"
 width="453.000000pt" height="453.000000pt" viewBox="0 0 453.000000 453.000000"
 preserveAspectRatio="xMidYMid meet">
<metadata>
Created by potrace 1.14, written by Peter Selinger 2001-2017
</metadata>
<g transform="translate(0.000000,453.000000) scale(0.100000,-0.100000)"
fill="#000000" stroke="none">
<path d="M2089 4526 c-2 -2 -34 -6 -70 -10 -36 -3 -90 -10 -120 -16 -30 -6
-67 -13 -84 -16 -164 -27 -412 -115 -602 -214 -93 -48 -297 -179 -338 -217
-11 -10 -38 -31 -60 -48 -61 -46 -243 -231 -314 -319 -235 -295 -389 -630
-461 -1004 -29 -149 -35 -221 -35 -422 1 -194 7 -263 35 -407 48 -248 107
-422 211 -623 292 -569 830 -1000 1444 -1156 212 -54 337 -69 575 -69 206 1
272 7 441 41 665 132 1233 557 1557 1164 92 172 182 420 208 570 3 14 7 32 10
41 2 9 7 32 9 50 3 19 7 44 9 57 21 102 28 439 13 579 -20 187 -91 472 -147
598 -122 270 -222 438 -365 612 -43 51 -207 218 -265 268 -307 266 -737 462
-1142 520 -23 3 -59 8 -78 11 -39 6 -426 15 -431 10z"/>
</g>
</svg>
